<?xml version='1.0' encoding='utf-8'?>
<svg xmlns="http://www.w3.org/2000/svg" version="1.1" width="600px" height="976px" viewBox="0 0 600 976"> <g id="layer1"> <g style="fill:rgb(0,0,0); fill-opacity:1.0; stroke-linejoin: miter"> <path d="M130.57611,459.6485C131.45459,460.31775,131.70557,461.19623,132.04028,464.96112C132.20758,467.3037,132.62585,468.72595,133.58801,470.6084C134.341,471.9889,135.01031,473.20197,135.1358,473.32745C135.26129,473.45294,136.22345,474.83344,137.22742,476.46484C138.2732,478.0545,139.61182,479.89514,140.23932,480.5644L141.3269,481.7776L143.3349,480.2716C145.2591,478.8075,146.26312,478.5147,146.1795,479.51862C146.13763,479.81146,146.09576,480.52258,146.05396,481.10822C146.05396,481.73572,145.46826,482.6978,144.71533,483.40906L143.41852,484.62213L144.25519,485.75153C145.46826,487.42487,150.78094,492.4447,153.9602,494.91278C156.9721,497.25537,162.49396,500.93665,162.9541,500.93665C163.1214,500.93665,163.7489,501.27124,164.33453,501.73138C166.30066,503.11188,181.6112,510.76715,186.79834,512.9424C196.25238,516.91644,197.08899,517.2511,198.05121,517.2511C198.59497,517.2511,202.02515,518.4642,205.66461,519.92834C218.96716,525.24097,227.41724,528.50385,228.54669,528.79675C229.1742,528.92224,229.80164,529.215,229.88531,529.4242C230.34546,530.1353,232.18604,528.83856,232.18604,527.83453C232.18604,526.3287,233.69203,526.41235,237.58241,528.1692C239.04652,528.83856,240.63615,529.3824,241.13814,529.3824C241.59828,529.3824,243.14607,530.1353,244.52654,531.05566C248.96071,533.9421,248.96071,533.9421,248.83519,535.3644C248.6679,537.2886,249.92284,537.41406,251.01048,535.53174C251.88896,534.06757,253.72957,532.77075,254.23155,533.31464C254.39888,533.48193,254.18971,534.48584,253.77138,535.57355C252.89293,537.9161,252.89293,537.9161,253.60405,539.9241C254.06422,541.26263,254.39888,541.5555,255.82115,541.89014C260.50635,543.01965,261.00836,543.22876,264.27124,545.44586C265.2752,546.1152,266.07,546.9518,266.07,547.37006C266.07,547.74664,265.06604,551.09314,263.8111,554.7326C262.09595,559.75244,261.21747,561.71857,260.25537,562.7225C258.91675,564.10297,258.6239,564.8141,256.2395,571.5909C254.81718,575.73224,254.3152,576.35974,252.80928,575.9414C252.05629,575.77405,251.84712,575.8996,251.84712,576.52704C251.84712,576.9454,251.6798,577.4892,251.47063,577.69836C251.26149,577.94934,250.00648,580.83575,248.6679,584.1823C246.28346,590.1643,246.24162,590.3316,246.15797,594.8495C246.0743,597.3594,246.03249,599.953,246.03249,600.58044C245.99065,601.1661,245.5305,602.2119,244.98668,602.8812C244.44283,603.50867,243.8572,604.7218,243.68987,605.5166C243.39705,606.8553,243.06242,607.6919,242.1421,609.2815C241.97475,609.61615,241.64009,610.3273,241.38911,610.8293C241.17995,611.3731,240.80348,611.79144,240.55247,611.79144C240.3433,611.79144,240.13417,612.1679,240.13417,612.62805C240.13417,613.0882,239.75764,613.6739,239.2975,613.9667C238.83736,614.2595,238.46089,614.7615,238.46089,615.0543C238.46089,615.34717,238.16808,615.6818,237.79155,615.8491C237.45686,615.9746,236.95491,616.51843,236.74574,617.06226C236.57845,617.6061,236.1183,618.0662,235.78365,618.0662C235.44896,618.0662,235.03062,618.44275,234.90514,618.9029C234.65416,619.69763,234.23586,619.90686,233.10637,619.7813C232.81354,619.7395,232.60437,620.15784,232.60437,620.78534C232.60437,621.62195,232.3952,621.8311,231.5586,621.8311C230.97296,621.8311,230.34546,622.1657,230.05261,622.7096C229.75983,623.2952,229.34149,623.5044,228.79773,623.3789C228.25385,623.2534,227.83551,623.4626,227.54272,624.00635C227.24988,624.55023,226.8316,624.75934,226.28772,624.63385C225.78577,624.5083,225.36743,624.63385,225.20013,625.0103C225.07465,625.345,224.44714,625.596,223.81964,625.596C223.15033,625.596,222.52289,625.7633,222.3974,625.9725C222.27191,626.18164,221.0169,626.3071,219.59467,626.2653C215.9552,626.18164,215.7461,626.5163,216.49908,631.45245C217.1684,635.76117,217.3357,641.91046,216.79187,641.91046C216.4154,641.91046,215.45325,644.3786,215.45325,645.3407C215.45325,645.67535,215.82971,646.3028,216.24805,646.6793C217.3357,647.6414,219.13446,651.49,219.63647,653.9581C219.88745,655.0457,220.80774,657.4719,221.72809,659.35443C223.40137,662.7846,223.52686,663.6213,223.31763,668.3483C223.23401,670.14703,224.11255,670.8582,226.07861,670.64905C228.33752,670.3981,230.97296,669.6451,231.30762,669.22675C231.4331,669.05945,232.31152,668.6411,233.23186,668.30646C235.23982,667.63715,236.62025,666.424,237.45686,664.6671C238.58638,662.3245,244.73567,656.4262,247.99858,654.6274C249.58818,653.74896,251.38698,652.243,255.52834,648.2689C256.82513,647.09766,257.9964,646.0937,258.16376,646.0937C258.37292,646.0937,259.4187,645.257,260.50635,644.21124C261.594,643.2072,263.01624,642.1196,263.64374,641.86865C264.31305,641.6176,264.81506,641.24115,264.81506,641.07385C264.81506,640.53,268.83093,637.7273,269.54205,637.7273C269.91852,637.7273,270.37872,637.4763,270.54602,637.1834C270.96436,636.51416,273.13965,635.552,273.59973,635.84485C273.89258,636.01215,276.31885,633.5022,277.90845,631.32697C278.53595,630.4485,281.12952,629.821,284.30878,629.7792C286.19122,629.7792,286.69318,629.57,288.07367,628.31506C288.99396,627.52026,290.3744,626.6836,291.21106,626.4326L292.71698,626.0143L293.00983,622.9606C293.17712,621.3291,293.51178,619.112,293.72095,618.0662C294.18115,616.0583,293.972,614.71967,293.1353,613.7994C292.88434,613.4647,292.00586,612.0006,291.21106,610.4946C289.83057,607.8174,287.99,605.5166,287.27887,605.5166C287.1115,605.5166,286.65137,605.2238,286.27484,604.8473C285.7729,604.3872,285.18726,604.26166,283.89044,604.5127C282.97015,604.6382,282.09167,604.93097,282.0498,605.14014C281.84064,605.6421,276.10968,605.6421,276.10968,605.14014C276.10968,604.93097,274.93842,604.5545,273.47424,604.3035C270.797,603.8433,268.99823,602.5466,268.99823,601.0406C268.99823,600.6641,268.78906,599.70197,268.49628,598.949C268.07794,597.7359,268.1198,597.31757,268.91455,595.6861C270.37872,592.71606,270.5042,590.8754,269.41656,588.7838C268.62177,587.236,268.5381,586.734,268.95642,585.4791C269.2074,584.64246,270.08588,583.22015,270.96436,582.29987C274.18542,578.78595,274.4364,578.2003,274.4364,573.6407C274.4364,571.2562,274.22723,569.081,273.93445,568.579C273.43243,567.6168,273.13965,561.55115,273.55792,561.1747C274.18542,560.67267,275.27307,558.6229,275.27307,558.0373C275.27307,557.70264,274.3946,556.5313,273.34875,555.4437C271.50818,553.6449,270.25323,551.46967,270.25323,550.13104C270.25323,548.8342,272.3448,547.0773,275.35675,545.906C277.02997,545.27856,280.00006,544.02356,281.8825,543.14514C283.80676,542.2248,285.56372,541.5137,285.73102,541.5137C286.52582,541.5137,288.24097,538.66907,288.24097,537.37225C288.24097,536.66113,288.57562,535.53174,288.99396,534.9042C289.4541,534.27673,290.2071,533.10535,290.75092,532.3106C293.00983,528.75494,301.4181,523.4422,308.2367,521.22516C310.57928,520.47217,311.79242,519.84467,312.25256,519.13354C313.21466,517.66943,317.64886,515.53595,320.20062,515.285C323.58905,514.9503,331.41162,516.70734,337.81195,519.25903C341.99512,520.8905,349.90137,525.1155,351.2818,526.41235C351.9093,526.9979,353.8336,528.62946,355.50687,530.0098C360.77768,534.23486,365.33737,540.3842,368.34927,547.32825C370.14807,551.4278,370.23172,551.88794,370.69186,557.9955C371.19385,564.1448,371.19385,564.4376,370.23172,567.8678C368.80945,573.1387,368.80945,573.30597,370.1062,575.81586C371.06836,577.7402,371.65402,578.284,373.57828,579.28796C374.83325,579.9573,375.92087,580.6266,376.00452,580.87756C376.0882,581.08673,376.38104,581.2541,376.67383,581.2541C377.59418,581.2541,381.10803,584.01495,383.03232,586.27386C384.5801,588.0727,384.91473,588.742,384.7056,589.6205C384.5801,590.248,384.66376,590.91724,384.87292,591.1264C386.00238,592.29767,387.25732,596.94104,389.2653,607.39905C389.5581,608.9887,390.01825,611.16394,390.3111,612.2097C391.1059,615.2635,391.94254,618.9447,392.36084,621.2036C392.9465,624.55023,394.076,628.817,395.62378,633.75323C397.04605,638.22925,397.04605,638.35474,396.3349,639.5679C395.62378,640.781,395.37274,643.54193,395.33093,649.7749C395.33093,651.61554,395.20544,651.95013,394.66162,651.8665C394.2433,651.78284,393.86682,651.992,393.78314,652.243C393.65765,652.53577,393.78314,652.78674,394.03415,652.78674C394.28513,652.78674,394.49432,653.07965,394.49432,653.41425C394.49432,653.74896,394.1178,654.04175,393.65765,654.04175C392.77917,654.04175,392.27722,654.75287,391.3987,657.4301C390.26926,660.94403,389.9346,663.4958,389.72546,670.60724C389.5581,676.7147,389.3908,678.0115,388.67963,679.39197C387.92664,680.8979,387.88483,681.3999,388.21948,685.4158C388.63782,689.8918,389.30713,693.23834,389.9346,693.9495C390.77124,694.86975,390.26926,695.45544,388.80515,695.45544C387.55017,695.45544,387.34103,695.58093,387.592,696.16656C387.75934,696.5849,387.9685,697.96533,388.094,699.22034L388.30316,701.52106L387.34103,700.2243C386.04422,698.55096,385.5004,698.50916,385.5004,700.1406C385.5004,701.64655,384.66376,702.19037,384.24542,700.89355C384.07813,700.3916,383.5343,699.8478,382.94867,699.6386C382.363,699.38763,381.86102,698.7602,381.6937,698.0909C381.52637,697.4634,380.98254,696.0829,380.4806,695.0371C379.97858,693.99133,379.18378,692.44354,378.76544,691.60693C377.59418,689.1806,377.134,689.38983,377.0085,692.44354C376.88303,694.99524,375.58624,698.38367,374.74957,698.38367C374.58228,698.38367,374.03845,697.4215,373.53644,696.2921C373.0345,695.1208,372.2815,693.99133,371.86316,693.7403C371.403,693.5311,371.06836,693.11285,371.06836,692.82C371.06836,692.52716,370.69186,691.56506,370.23172,690.6448C369.77158,689.7244,369.39508,688.72046,369.35327,688.344C369.35327,688.00934,369.10223,688.38586,368.85126,689.1806L368.43295,690.6448L368.14014,689.38983C367.9728,688.67865,367.80548,686.96356,367.7636,685.54126C367.7218,682.9895,367.0943,680.8142,366.38318,680.8142C366.21585,680.8142,366.04852,680.98157,366.04852,681.23254C366.04852,681.4417,365.83936,681.6509,365.6302,681.6509C365.3792,681.6509,365.21188,681.10706,365.21188,680.47955C365.21188,679.8103,364.91907,678.9318,364.5844,678.4716C364.24976,678.05334,363.9569,677.2167,363.9569,676.63104C363.87326,675.58527,363.87326,675.6271,363.32947,676.8402C362.99478,677.5095,362.7438,678.80634,362.70197,679.64294C362.70197,681.8182,361.44702,687.7165,360.56854,689.8081C360.40118,690.26825,360.10837,691.314,359.94104,692.1089C359.81555,692.9037,359.5227,693.7403,359.3554,693.99133C359.18808,694.2005,358.89526,694.86975,358.7279,695.45544C358.10046,697.71436,353.70807,706.1644,352.62042,707.37756C351.95117,708.0469,351.4073,708.8417,351.4073,709.09265C351.4073,709.3436,350.86353,710.1385,350.15234,710.8496C349.48303,711.6026,348.8974,712.3974,348.8974,712.6902C348.8974,712.9412,348.43726,713.65234,347.89343,714.23804C347.3496,714.8655,346.5548,715.91125,346.09467,716.62244C345.17432,718.1702,343.08276,721.0148,341.15845,723.2737C340.36365,724.19403,337.6446,727.6661,335.13464,731.01263C332.58295,734.3592,330.2403,737.3711,329.9475,737.70575C329.36182,738.4169,327.52124,741.0941,325.42963,744.2734L324.00732,746.4905L267.45044,746.4905L210.89355,746.4905L211.3537,745.11005C211.56287,744.39886,212.02301,742.7256,212.39954,741.47064C212.73419,740.2157,213.19434,739.00256,213.4035,738.7934C213.61261,738.54236,213.77997,738.0404,213.77997,737.66394C213.77997,737.2874,214.32379,735.5723,215.03497,733.89905C215.70422,732.18396,216.28986,730.678,216.28986,730.4688C216.28986,730.30145,215.11859,730.17596,213.65448,730.17596C209.51312,730.13416,205.87372,729.46484,204.32593,728.41907C201.98334,726.8713,199.1388,721.93506,197.67468,716.7898C196.54517,712.9412,195.62488,710.7241,195.03918,710.3476C194.03528,709.76196,188.88995,704.53296,188.05328,703.278C187.67676,702.6506,187.09119,702.14856,186.75653,702.14856C186.46368,702.14856,186.08716,701.6884,185.91986,701.1446C185.79437,700.60077,185.12506,699.6386,184.45575,698.96936C183.78644,698.34186,183.24255,697.63074,183.24255,697.4215C183.24255,697.08685,180.73267,693.7403,178.26459,690.8121C177.55347,689.97546,176.96783,689.1388,176.96783,688.97144C176.96783,688.80414,176.34033,687.92566,175.58734,686.96356C174.87622,686.0433,173.87225,684.6628,173.41205,683.9098C172.95197,683.19867,171.82245,681.4835,170.90216,680.14496C169.98187,678.80634,168.76874,676.9657,168.22491,676.04535C167.68115,675.08325,167.09546,674.24664,166.92816,674.12115C166.7608,673.9956,166.17511,673.0753,165.67316,672.02954C165.1712,670.9837,164.46002,669.97974,164.16718,669.81244C163.83252,669.6451,163.58154,669.18494,163.58154,668.8921C163.58154,668.55743,163.37244,668.26465,163.16327,668.26465C162.9123,668.26465,162.74493,667.80444,162.74493,667.2607C162.74493,666.675,162.53577,666.08936,162.3266,665.96387C162.07562,665.8384,161.90826,665.37823,161.90826,664.9181C161.90826,664.49976,161.28082,663.53766,160.5697,662.7846C159.27283,661.4042,158.5199,660.4002,157.85059,659.0616C157.22308,657.76483,155.59167,655.58954,154.58765,654.6274C154.00201,654.0836,153.54193,653.4979,153.54193,653.3306C153.54193,653.16327,152.91443,652.3266,152.16144,651.49C150.40448,649.56573,149.81879,647.6414,150.36267,645.5498C150.61365,644.7132,150.9483,644.0021,151.11566,644.0021C151.28296,644.0021,151.45032,643.7511,151.45032,643.4164C151.45032,643.1236,152.20325,641.3248,153.12354,639.4842C154.04388,637.6436,154.79681,635.92847,154.79681,635.6775C154.79681,635.4265,155.04785,635.21735,155.29883,635.21735C155.71716,635.21735,155.71716,635.1337,155.3825,634.8827C154.83862,634.54803,153.20728,629.31903,152.11957,624.55023C151.7431,622.9187,151.24115,621.53827,151.03198,621.49646C150.78094,621.4128,150.61365,620.74347,150.61365,620.03235C150.61365,619.27936,150.40448,617.8989,150.19531,616.93677C149.56781,614.2595,149.56781,604.3035,150.15344,602.4629C150.73914,600.74774,152.37054,598.7817,153.9184,597.9869C154.83862,597.52673,154.8805,597.31757,154.62952,595.10046C154.21118,591.5866,154.62952,590.2898,156.21912,589.7041C156.9721,589.4113,157.97614,589.20215,158.43622,589.20215C159.5238,589.20215,159.77484,588.53284,159.3565,587.02686C158.93823,585.5628,159.73303,583.01105,160.737,582.46716C161.95007,581.79785,163.66522,581.75604,165.1294,582.3417C165.84052,582.6345,166.55164,582.76,166.67712,582.59265C167.26276,582.0488,166.88629,580.16644,166.09149,579.6644C164.87836,578.9115,165.04572,577.32184,166.38428,576.23425C167.30463,575.5231,167.93213,575.3558,169.35437,575.5231C170.65118,575.64856,171.32043,575.5231,171.65515,575.1048C172.57544,573.9335,174.3324,572.2602,175.04352,571.84186C175.54553,571.5491,175.75464,570.7124,175.83832,568.66266C176.00568,564.8141,176.92603,563.8938,180.31439,563.93567C182.7406,563.9775,182.78247,563.93567,183.45178,562.597C183.82825,561.8022,184.37207,561.1747,184.70673,561.1747C185.04138,561.1747,185.33417,560.9655,185.33417,560.75635C185.33417,560.5054,186.00354,560.3381,186.84015,560.3381C188.01147,560.3381,188.30426,560.1707,188.17877,559.62695C188.09515,559.1668,186.50555,558.28827,183.66095,557.1589C175.71283,553.9378,171.52966,552.39,170.73486,552.39C170.31653,552.39,164.50189,550.7167,157.8924,548.66693C151.24115,546.6171,144.297,544.6511,142.45642,544.31635C137.4784,543.35425,122.16785,542.1829,118.90497,542.5176C117.35718,542.6849,115.72577,542.8105,115.265564,542.7686C113.50867,542.7268,106.85736,543.7308,106.06256,544.14905C105.01672,544.69293,101.33557,547.66296,100.206055,548.87604C99.03479,550.13104,96.60858,551.5533,95.60455,551.5533C93.59656,551.5115,91.88153,548.7924,92.46716,546.49164C92.63446,545.69684,98.28174,531.30664,105.01672,514.53204C111.70984,497.71558,119.40692,478.5147,122.04236,471.86334C124.677795,465.1703,127.062195,459.60663,127.31323,459.4392C128.06616,458.93726,129.82318,459.06274,130.57611,459.6485 Z M214.1983,575.5649C214.40747,575.77405,214.61664,576.40155,214.61664,576.9454C214.61664,577.86566,214.24011,578.0748,213.06885,577.94934C212.81787,577.9075,212.06488,578.61865,211.39551,579.53894C210.76807,580.4592,209.88965,581.2959,209.51312,581.3796C209.09479,581.50507,208.55096,582.0907,208.25818,582.7182C207.83984,583.6385,207.88171,584.05676,208.46729,585.1444C209.72229,587.6125,209.72229,588.53284,208.38367,591.7539C207.71436,593.469,207.00317,595.3933,206.83582,596.1044C206.66852,596.77374,205.9992,598.53064,205.32996,599.953C203.7403,603.50867,203.7403,605.76764,205.45544,612.4607C205.9574,614.4687,206.08289,614.5942,208.42548,615.59814C209.7641,616.14197,210.85175,616.8113,210.85175,617.06226C210.85175,617.73157,219.26001,618.2335,221.89545,617.73157C223.02484,617.4806,224.11255,617.0204,224.32166,616.6439C224.53082,616.26746,224.90729,615.9746,225.11646,615.9746C226.28772,615.9746,233.02272,609.6998,233.02272,608.5704C233.02272,608.2775,233.2737,607.901,233.56654,607.7337C234.3195,607.27356,235.95097,603.174,235.95097,601.7517C235.95097,601.12427,236.20195,600.3713,236.5366,600.1203C237.24773,599.49286,239.925,599.91113,240.76164,600.74774C241.47276,601.4589,243.35524,601.50073,243.60622,600.7896C243.7317,600.5386,243.68987,598.196,243.60622,595.6861C243.35524,591.2937,243.43889,590.8754,244.69386,587.3197C245.40501,585.2281,245.99065,582.9692,245.9488,582.29987C245.9488,581.5887,245.99065,579.4971,246.11613,577.6147C246.28346,574.5609,246.19978,574.18445,245.5305,574.01715C245.07033,573.89166,244.61018,573.9753,244.4847,574.18445C244.35918,574.3936,243.7317,574.5609,243.06242,574.5609C242.18394,574.5609,241.30547,575.1048,239.75764,576.6525C238.58638,577.782,237.41505,578.74414,237.16408,578.74414C236.91307,578.74414,235.78365,578.4095,234.65416,578.03296C232.72986,577.3637,232.60437,577.3637,231.80957,578.0748C230.88928,578.9115,230.59644,578.8696,227.37537,577.531C226.2041,577.07086,224.7818,576.56885,224.15436,576.44336C223.06665,576.23425,222.89935,575.9833,222.3974,573.5988C222.23004,572.9713,221.89545,572.4693,221.60254,572.4693C221.30975,572.4693,219.92932,572.051,218.59064,571.5072L216.08075,570.50323L214.90948,572.804C214.11462,574.3936,213.90546,575.2721,214.1983,575.5649 Z M362.24182,590.5408C362.11633,591.6702,362.32547,593.218,362.70197,593.80365C363.07843,594.3475,363.1621,594.3475,363.5386,593.80365C364.0824,592.96704,364.54257,588.9511,364.2079,588.0727C363.9569,587.487,363.7896,587.5707,363.12027,588.6583C362.70197,589.3695,362.28363,590.2061,362.24182,590.5408 Z M181.27649,616.6858C181.10919,617.10406,180.89996,617.5224,180.77448,617.6479C180.10522,618.1917,178.22278,620.9945,178.22278,621.371C178.22278,621.62195,178.05542,621.8311,177.80444,621.8311C177.59528,621.8311,177.21881,622.2076,176.96783,622.6259C176.63318,623.2952,176.80054,623.6717,177.80444,624.75934C178.51556,625.5123,179.05939,626.2653,179.05939,626.4744C179.05939,627.2274,179.77057,626.8091,181.90399,624.7175C183.28448,623.3371,184.03748,622.3331,183.91193,621.8729C183.78644,621.49646,183.49359,620.03235,183.20074,618.56824C182.69879,615.9746,181.86218,615.138,181.27649,616.6858 Z M385.29126,685.79224C385.29126,688.344,385.7096,689.8081,386.62988,690.39374C387.592,690.97943,388.17767,690.6448,387.46652,689.9336C387.1737,689.6408,386.96454,688.97144,386.96454,688.4277C386.96454,687.0054,386.08606,684.16077,385.62592,684.16077C385.45856,684.16077,385.29126,684.87195,385.29126,685.79224 Z"/> </g> </g> </svg>